<svg width="514" height="514" viewBox="0 0 514 514" fill="none" xmlns="http://www.w3.org/2000/svg">
<rect width="514" height="514" rx="10" fill="#2E2E2E"/>
<g clip-path="url(#clip0)">
<path d="M293.273 236.588C297.14 234.45 298.542 229.583 296.404 225.716C294.267 221.849 289.4 220.448 285.532 222.585L274.123 228.892C270.256 231.03 268.854 235.897 270.992 239.764C272.451 242.404 275.183 243.895 278.001 243.895C279.31 243.895 280.638 243.573 281.864 242.895L293.273 236.588Z" fill="#F7F7F7"/>
<path d="M448.796 105.855L288.807 17.411C270.932 7.529 242.929 7.53 225.055 17.411L65.065 105.855C47.045 115.816 32.93 139.748 32.93 160.338V353.523C32.93 374.113 47.045 398.044 65.065 408.006L225.054 496.45C233.992 501.391 245.459 503.862 256.93 503.861C268.398 503.861 279.87 501.39 288.806 496.45L448.795 408.006C466.815 398.044 480.93 374.112 480.93 353.523V160.338C480.931 139.748 466.815 115.816 448.796 105.855ZM464.931 353.523C464.931 368.311 453.997 386.849 441.055 394.003L281.066 482.447C276.526 484.957 270.891 486.575 264.931 487.343V272.931C264.931 268.513 261.349 264.931 256.931 264.931C252.513 264.931 248.931 268.513 248.931 272.931V487.343C242.972 486.575 237.336 484.957 232.796 482.447L72.807 394.003C59.865 386.848 48.931 368.311 48.931 353.523V160.338C48.931 155.086 50.315 149.362 52.674 143.842L231.854 242.895C233.081 243.573 234.408 243.895 235.717 243.895C238.534 243.895 241.266 242.404 242.726 239.764C244.864 235.897 243.462 231.03 239.595 228.892L60.958 130.14C64.474 125.835 68.529 122.223 72.806 119.858L232.795 31.414C239.336 27.798 248.133 25.99 256.93 25.99C265.727 25.99 274.524 27.798 281.065 31.414L441.054 119.858C445.313 122.212 449.351 125.805 452.858 130.085L312.481 207.687C308.614 209.825 307.212 214.692 309.35 218.559C310.809 221.199 313.541 222.69 316.359 222.69C317.668 222.69 318.996 222.368 320.222 221.69L461.16 143.778C463.535 149.318 464.93 155.066 464.93 160.338V353.523H464.931Z" fill="#F7F7F7"/>
<path d="M442.168 217.104C437.847 216.188 433.599 218.949 432.683 223.271C429.914 236.33 421.946 248.935 413.305 253.924C411.406 255.021 407.845 256.645 405.357 255.21C403.217 253.975 400.932 249.968 400.932 242.426C400.932 227.314 410.262 209.16 421.306 202.784C423.164 201.711 426.65 200.109 429.13 201.43C433.03 203.508 437.875 202.032 439.952 198.132C442.03 194.233 440.554 189.387 436.654 187.31C429.763 183.638 421.472 184.213 413.305 188.928C397.394 198.114 384.931 221.614 384.931 242.427C384.931 254.798 389.46 264.508 397.356 269.067C400.516 270.892 403.981 271.8 407.608 271.8C412.02 271.8 416.672 270.456 421.304 267.782C433.775 260.581 444.638 244.028 448.335 226.591C449.251 222.267 446.49 218.02 442.168 217.104Z" fill="#F7F7F7"/>
<path d="M338.168 394.258C333.845 393.342 329.599 396.103 328.683 400.425C325.914 413.484 317.946 426.089 309.305 431.078C307.405 432.175 303.846 433.802 301.357 432.364C299.217 431.129 296.932 427.122 296.932 419.581C296.932 404.469 306.262 386.315 317.306 379.939C319.164 378.866 322.65 377.263 325.131 378.585C329.03 380.662 333.877 379.185 335.953 375.286C338.031 371.387 336.554 366.541 332.654 364.464C325.764 360.793 317.472 361.369 309.306 366.083C293.395 375.269 280.932 398.769 280.932 419.582C280.932 431.953 285.461 441.663 293.357 446.222C296.517 448.047 299.982 448.955 303.609 448.955C308.021 448.955 312.673 447.611 317.305 444.936C329.776 437.736 340.639 421.183 344.336 403.745C345.251 399.421 342.49 395.174 338.168 394.258Z" fill="#F7F7F7"/>
<path d="M390.168 305.681C385.844 304.763 381.599 307.526 380.683 311.848C377.914 324.907 369.946 337.512 361.305 342.5C359.405 343.597 355.845 345.224 353.357 343.786C351.217 342.551 348.932 338.544 348.932 331.003C348.932 315.891 358.262 297.737 369.306 291.361C371.164 290.288 374.65 288.686 377.131 290.007C381.03 292.084 385.876 290.607 387.953 286.708C390.031 282.809 388.554 277.963 384.654 275.886C377.764 272.216 369.472 272.79 361.306 277.505C345.395 286.691 332.932 310.191 332.932 331.004C332.932 343.375 337.461 353.085 345.357 357.644C348.517 359.469 351.982 360.377 355.609 360.377C360.021 360.377 364.673 359.033 369.305 356.358C381.776 349.158 392.638 332.605 396.336 315.168C397.251 310.844 394.49 306.598 390.168 305.681Z" fill="#F7F7F7"/>
<path d="M171.045 313.085C166.714 313.959 163.911 318.177 164.784 322.509C165.377 325.447 165.677 328.305 165.677 331.003C165.677 338.545 163.391 342.551 161.252 343.786C158.762 345.224 155.203 343.598 153.303 342.5C142.26 336.124 132.929 317.971 132.929 302.858C132.929 295.316 135.215 291.31 137.354 290.074C139.843 288.637 143.402 290.262 145.301 291.359C146.843 292.25 148.402 293.414 149.935 294.82C153.189 297.806 158.251 297.59 161.238 294.333C164.225 291.078 164.007 286.017 160.751 283.03C158.36 280.836 155.854 278.977 153.302 277.503C144.863 272.63 136.357 272.173 129.354 276.218C121.458 280.777 116.929 290.487 116.929 302.858C116.929 323.671 129.392 347.171 145.303 356.356C149.935 359.031 154.586 360.375 158.999 360.375C162.625 360.375 166.092 359.466 169.251 357.642C177.147 353.083 181.676 343.373 181.676 331.002C181.676 327.245 181.269 323.323 180.468 319.345C179.596 315.016 175.382 312.215 171.045 313.085Z" fill="#F7F7F7"/>
<path d="M304.931 184.931C304.931 180.513 301.349 176.931 296.931 176.931C292.614 176.931 289.096 180.351 288.936 184.629C287.538 187.108 276.463 192.931 256.931 192.931C238.153 192.931 227.192 187.549 225.131 184.931C227.193 182.313 238.153 176.931 256.931 176.931C262.031 176.931 266.95 177.339 271.551 178.142C275.905 178.903 280.049 175.991 280.808 171.639C281.569 167.287 278.657 163.142 274.305 162.382C268.797 161.419 262.952 160.931 256.931 160.931C245.253 160.931 234.153 162.799 225.676 166.189C211.107 172.017 208.931 180.433 208.931 184.931C208.931 189.429 211.106 197.845 225.676 203.673C234.154 207.064 245.254 208.931 256.931 208.931C268.608 208.931 279.709 207.063 288.186 203.673C302.755 197.845 304.931 189.429 304.931 184.931Z" fill="#F7F7F7"/>
<path d="M225.675 147.672C234.153 151.063 245.253 152.93 256.93 152.93C268.607 152.93 279.708 151.062 288.185 147.672C302.754 141.844 304.93 133.428 304.93 128.93C304.93 124.512 301.348 120.93 296.93 120.93C292.613 120.93 289.095 124.35 288.935 128.628C287.537 131.107 276.462 136.93 256.93 136.93C238.152 136.93 227.191 131.548 225.13 128.93C227.192 126.312 238.152 120.93 256.93 120.93C262.03 120.93 266.949 121.338 271.55 122.141C275.904 122.903 280.048 119.99 280.807 115.638C281.568 111.286 278.656 107.141 274.304 106.381C268.796 105.418 262.951 104.93 256.93 104.93C245.252 104.93 234.152 106.798 225.675 110.188C211.106 116.016 208.93 124.432 208.93 128.93C208.93 133.428 211.106 141.845 225.675 147.672Z" fill="#F7F7F7"/>
<path d="M329.675 147.672C338.153 151.063 349.253 152.93 360.93 152.93C372.607 152.93 383.708 151.062 392.185 147.672C406.754 141.844 408.93 133.428 408.93 128.93C408.93 124.512 405.348 120.93 400.93 120.93C396.613 120.93 393.095 124.35 392.935 128.628C391.537 131.107 380.462 136.93 360.93 136.93C342.152 136.93 331.191 131.548 329.13 128.93C331.192 126.312 342.152 120.93 360.93 120.93C366.03 120.93 370.949 121.338 375.55 122.141C379.904 122.903 384.047 119.99 384.807 115.638C385.568 111.286 382.656 107.141 378.304 106.381C372.796 105.418 366.951 104.93 360.93 104.93C349.252 104.93 338.152 106.798 329.675 110.188C315.106 116.016 312.93 124.432 312.93 128.93C312.93 133.428 315.106 141.845 329.675 147.672Z" fill="#F7F7F7"/>
<path d="M192.931 120.931C188.614 120.931 185.096 124.351 184.936 128.629C183.538 131.108 172.463 136.931 152.931 136.931C134.153 136.931 123.192 131.549 121.131 128.931C123.193 126.313 134.153 120.931 152.931 120.931C158.031 120.931 162.95 121.339 167.551 122.142C171.902 122.904 176.048 119.991 176.808 115.639C177.569 111.287 174.657 107.142 170.305 106.382C164.797 105.419 158.952 104.931 152.931 104.931C141.253 104.931 130.153 106.799 121.676 110.189C107.107 116.017 104.931 124.433 104.931 128.931C104.931 133.429 107.106 141.845 121.676 147.673C130.154 151.064 141.254 152.931 152.931 152.931C164.608 152.931 175.709 151.063 184.186 147.673C198.755 141.845 200.931 133.429 200.931 128.931C200.931 124.512 197.349 120.931 192.931 120.931Z" fill="#F7F7F7"/>
<path d="M225.675 91.672C234.153 95.063 245.253 96.93 256.93 96.93C268.607 96.93 279.708 95.062 288.185 91.672C302.754 85.844 304.93 77.428 304.93 72.93C304.93 68.512 301.348 64.93 296.93 64.93C292.613 64.93 289.095 68.35 288.935 72.628C287.537 75.107 276.462 80.93 256.93 80.93C238.152 80.93 227.191 75.548 225.13 72.93C227.192 70.312 238.152 64.93 256.93 64.93C262.03 64.93 266.949 65.338 271.55 66.141C275.904 66.903 280.048 63.99 280.807 59.638C281.568 55.286 278.656 51.141 274.304 50.381C268.796 49.418 262.951 48.93 256.93 48.93C245.252 48.93 234.152 50.798 225.675 54.188C211.106 60.016 208.93 68.432 208.93 72.93C208.93 77.428 211.106 85.845 225.675 91.672Z" fill="#F7F7F7"/>
</g>
<defs>
<clipPath id="clip0">
<rect x="10" y="10" width="493.861" height="493.861" fill="white"/>
</clipPath>
</defs>
</svg>
